<svg width="28" height="28" viewBox="0 0 28 28" fill="none" xmlns="http://www.w3.org/2000/svg">
<path d="M14 0C6.272 0 0 6.272 0 14C0 21.728 6.272 28 14 28C21.728 28 28 21.728 28 14C28 6.272 21.728 0 14 0ZM19.054 8.876C20.552 8.876 21.756 10.08 21.756 11.578C21.756 13.076 20.552 14.28 19.054 14.28C17.556 14.28 16.352 13.076 16.352 11.578C16.338 10.08 17.556 8.876 19.054 8.876ZM10.654 6.664C12.474 6.664 13.958 8.148 13.958 9.968C13.958 11.788 12.474 13.272 10.654 13.272C8.834 13.272 7.35 11.788 7.35 9.968C7.35 8.134 8.82 6.664 10.654 6.664ZM10.654 19.446V24.696C7.294 23.646 4.634 21.056 3.458 17.752C4.928 16.184 8.596 15.386 10.654 15.386C11.396 15.386 12.334 15.498 13.314 15.694C11.018 16.912 10.654 18.522 10.654 19.446ZM14 25.2C13.622 25.2 13.258 25.186 12.894 25.144V19.446C12.894 17.458 17.01 16.464 19.054 16.464C20.552 16.464 23.142 17.01 24.43 18.074C22.792 22.232 18.746 25.2 14 25.2Z" fill="white"/>
</svg>
